<?xml version="1.0" standalone="no"?>
<!DOCTYPE svg PUBLIC "-//W3C//DTD SVG 20010904//EN"
 "http://www.w3.org/TR/2001/REC-SVG-20010904/DTD/svg10.dtd">
<svg version="1.0" xmlns="http://www.w3.org/2000/svg"
 width="126.000000pt" height="126.000000pt" viewBox="0 0 126.000000 126.000000"
 preserveAspectRatio="xMidYMid meet">

<g transform="translate(0.000000,126.000000) scale(0.100000,-0.100000)"
fill="#fff" stroke="none">
<path d="M502 1215 c-218 -49 -401 -229 -457 -450 -19 -76 -19 -214 0 -290 51
-200 194 -358 393 -433 58 -22 83 -26 192 -26 106 -1 136 3 198 23 182 60 326
202 387 385 110 328 -69 676 -402 782 -70 22 -234 27 -311 9z m375 -284 c73
-34 114 -122 93 -200 -28 -106 -141 -160 -245 -117 -35 15 -42 29 -27 53 6 10
18 7 51 -9 36 -18 48 -19 80 -10 111 34 134 174 38 232 -45 28 -96 25 -142 -6
-34 -23 -40 -24 -53 -10 -20 19 -6 37 51 65 52 26 99 26 154 2z m-263 -55 c51
-21 66 -50 66 -125 0 -72 -27 -144 -62 -162 -20 -11 -20 -11 3 -27 13 -10 46
-28 74 -42 46 -23 51 -29 72 -90 12 -36 23 -82 23 -103 l0 -37 -242 2 -243 3
-3 23 c-4 23 34 148 50 169 5 7 39 28 75 48 l66 36 26 -25 c33 -32 35 -32 54
-2 16 23 15 23 -22 22 -71 -1 -125 57 -137 150 -8 67 1 106 32 138 37 37 110
46 168 22z m204 -39 c3 -45 4 -46 40 -49 25 -2 37 -8 37 -18 0 -12 -13 -15
-55 -15 l-55 0 -3 54 c-2 29 -1 60 2 68 11 29 31 6 34 -40z"/>
<path d="M535 417 c-5 -48 -4 -72 4 -80 19 -19 31 12 24 63 -11 84 -20 89 -28
17z"/>
</g>
</svg>
