<svg xmlns="http://www.w3.org/2000/svg" data-name="Layer 21" viewBox="0 0 64 80" x="0px" y="0px"><path d="m50.72,43.44c-4.01,0-7.28,3.27-7.28,7.28s3.27,7.28,7.28,7.28,7.28-3.27,7.28-7.28-3.27-7.28-7.28-7.28Zm2.94,8.75c.41.41.41,1.07,0,1.48-.21.2-.47.3-.74.3s-.53-.1-.74-.3l-1.47-1.48-1.47,1.48c-.21.2-.48.3-.74.3s-.53-.1-.74-.3c-.41-.41-.41-1.07,0-1.48l1.48-1.47-1.48-1.47c-.41-.41-.41-1.07,0-1.48.41-.41,1.07-.41,1.48,0l1.47,1.48,1.47-1.48c.41-.41,1.07-.41,1.48,0,.41.41.41,1.07,0,1.48l-1.48,1.47,1.48,1.47Zm-10.42-7.07c-.46-.64-.95-1.27-1.51-1.82-2.57-2.61-6.01-4.04-9.7-4.05h-.05c-7.59.01-13.76,6.19-13.76,13.78v1c4.12,2.59,8.86,3.97,13.78,3.97,3.79,0,7.4-.79,10.78-2.35-.89-1.44-1.42-3.12-1.42-4.93,0-2.1.71-4.05,1.88-5.61Zm-3.04-20.09c-1.39-3.44-4.71-5.53-8.22-5.53-1.1,0-2.22.21-3.3.63-2.18.88-3.9,2.57-4.83,4.74-.93,2.17-.95,4.58-.07,6.77,1.83,4.52,6.99,6.72,11.51,4.9,2.18-.88,3.9-2.57,4.83-4.74s.95-4.58.07-6.77Zm-8.21-19.02c-14.34,0-26,11.66-26,26,0,8.13,3.76,15.69,10.16,20.6.19-6.79,4.65-12.53,10.8-14.6-2.23-1.15-4.08-3.08-5.09-5.6-1.09-2.7-1.06-5.67.08-8.35,1.14-2.69,3.26-4.76,5.97-5.86,5.58-2.26,11.96.46,14.21,6.04,1.09,2.71,1.06,5.68-.08,8.36-1,2.35-2.75,4.23-4.98,5.4,2.3.77,4.4,2.06,6.15,3.83.54.53,1.02,1.12,1.49,1.74,1.62-1.37,3.72-2.2,6.02-2.2,1.81,0,3.49.53,4.93,1.42,1.56-3.38,2.35-7,2.35-10.78,0-14.34-11.66-26-26-26Z"/><text x="0" y="79" fill="#fff" font-size="5px" font-weight="bold" font-family="'Helvetica Neue', Helvetica, Arial-Unicode, Arial, Sans-serif">Created by Yosua Bungaran</text><text x="0" y="84" fill="#000000" font-size="5px" font-weight="bold" font-family="'Helvetica Neue', Helvetica, Arial-Unicode, Arial, Sans-serif">from the Noun Project</text></svg>