<svg xmlns="http://www.w3.org/2000/svg" xmlns:xlink="http://www.w3.org/1999/xlink" version="1.1" x="0px" y="0px" viewBox="0 0 70 87.5" enable-background="new 0 0 70 70" xml:space="preserve"><g><path fill="#fff" d="M15.48,60.93c13.295,0,26.34,0,39.489,0c0,2.328,0,4.598,0,7.076c-2.129,0.27-4.282,0.62-6.449,0.804   c-9.934,0.843-19.863,0.773-29.781-0.276c-3.261-0.345-3.26-0.348-3.26-3.665C15.48,63.59,15.48,62.311,15.48,60.93z"/><path fill="#fff" d="M24.361,41.935c6.567,8.437,15.538,7.54,21.079,0.188c2.513,0.44,2.523,0.44,2.53,2.934   c0.009,3.251-0.041,6.502,0.021,9.751c0.022,1.149-0.282,1.59-1.51,1.582c-7.695-0.048-15.391-0.039-23.087-0.007   c-1.031,0.004-1.445-0.277-1.429-1.373c0.054-3.68,0.064-7.362,0.005-11.042C21.941,42.085,23.624,42.682,24.361,41.935z"/><path fill="#fff" d="M17.367,45.187c0,3.453,0.024,6.891-0.044,10.329c-0.006,0.29-0.61,0.777-0.976,0.819   c-4.047,0.463-5.351,1.864-5.372,5.909c-0.008,1.573-0.001,3.145-0.001,5.157c-2.321-0.806-4.416-1.5-6.473-2.289   c-0.269-0.103-0.513-0.701-0.497-1.058C4.384,55.584,7.94,47.96,16.992,45.108C17.03,45.096,17.082,45.125,17.367,45.187z"/><path fill="#fff" d="M52.717,44.99c4.251,1.579,7.902,3.669,10.106,7.687c1.888,3.442,3.021,7.092,3.173,11.038   c0.034,0.895-0.247,1.447-1.119,1.726c-1.671,0.534-3.329,1.108-5.271,1.759c0-1.855-0.068-3.42,0.013-4.977   c0.199-3.811-2.143-6.11-5.56-5.837c-1.058,0.084-1.528-0.229-1.494-1.428c0.089-3.106,0.033-6.215,0.04-9.324   C52.605,45.493,52.652,45.353,52.717,44.99z"/><path fill="#fff" d="M51.3,15.393c-0.291-0.422-0.816-0.705-1.416-0.705h-0.006c-0.001-0.003-0.003-0.005-0.005-0.008   c-0.034-0.055-0.065-0.112-0.092-0.17c-0.14-0.284-0.226-0.606-0.277-0.976c-0.14-1-0.392-1.949-0.754-2.846   c-0.773-1.925-2.046-3.616-3.781-5.069c-0.106-0.153-0.304-0.338-0.694-0.559c-0.011-0.006-0.022-0.012-0.033-0.018   c-0.428-0.243-0.87-0.47-1.266-0.665c-0.002,1.184-0.003,2.188-0.006,3.192c-0.002,0.675-0.138,1.296-1.09,1.315   c-0.813,0.016-1.071-0.43-1.136-0.981c-0.011-0.093-0.017-0.19-0.019-0.289c-0.022-1.042-0.078-2.087-0.003-3.125   c0.002-0.039,0.005-0.078,0.008-0.117c0.079-0.987-0.246-1.568-1.404-1.776c-0.014-0.003-0.029-0.005-0.042-0.008   c-0.13-0.034-0.27-0.064-0.422-0.087c-0.057-0.009-0.115-0.018-0.173-0.028c-0.666-0.156-1.244-0.441-1.256-1.328   c-0.002-0.169-0.552-0.456-0.864-0.475c-0.09-0.005-0.181-0.01-0.272-0.015c-0.027-0.005-0.055-0.008-0.081-0.009   c-1.024-0.06-2.061-0.033-3.086,0.043c-0.312,0.022-0.857,0.317-0.857,0.486c0.002,0.944-0.648,1.216-1.368,1.376   c-0.002,0-0.005,0.001-0.007,0.001c-0.01,0.002-0.022,0.003-0.032,0.006c-0.104,0.017-0.202,0.037-0.295,0.06   c-0.001,0-0.002,0.001-0.003,0.001c-0.055,0.011-0.108,0.02-0.163,0.031c-1.072,0.205-1.421,0.725-1.39,1.587   c0.002,0.067,0.007,0.136,0.015,0.207c0.103,1.074,0.062,2.161,0.057,3.242c0,0.101-0.005,0.201-0.015,0.299   c-0.059,0.547-0.311,0.99-1.12,0.985c-0.952-0.008-1.098-0.627-1.111-1.302c-0.018-0.978-0.035-1.956-0.056-3.102   c-0.001-0.055-0.002-0.109-0.003-0.164c-0.018,0.01-0.036,0.021-0.056,0.031c-0.494,0.284-0.804,0.426-1.063,0.622   c-2.122,1.601-3.645,3.504-4.512,5.706c-0.368,0.932-0.618,1.917-0.747,2.956c-0.036,0.294-0.093,0.557-0.184,0.795   c-0.022,0.062-0.047,0.12-0.074,0.178h-0.001h-0.073c-0.865,0-1.577,0.588-1.653,1.339c-0.001,0-0.001,0,0,0.001   c-0.005,0.044-0.007,0.089-0.007,0.134v0.114c0,0.166,0.038,0.325,0.106,0.469c0.201,0.42,0.661,0.718,1.203,0.734   c0.015,0.001,0.03,0.001,0.046,0.001h2.814h0.547c0.79,0.052,2.319,0.112,4.239,0h19.79h3.032c0.04,0,0.079-0.001,0.116-0.004   c0.511-0.039,0.942-0.329,1.133-0.731c0.068-0.144,0.106-0.303,0.106-0.469v-0.114C51.545,15.881,51.456,15.617,51.3,15.393z"/><path fill="#fff" d="M49.001,25.834c0.903-1.941,1.217-3.722,0.977-5.348H20.079c-0.259,1.656,0.042,3.477,0.946,5.463   c-2.206,0.83-2.732,2.394-1.389,3.791c0.594,0.618,1.465,1.069,2.184,1.621c0.58,0.443,1.198,0.875,1.661,1.389   c1.764,1.97,3.17,4.204,5.27,5.911c3.722,3.031,8.754,3.043,12.5,0.052c2.029-1.618,3.39-3.748,5.109-5.614   c0.623-0.677,1.29-1.396,2.147-1.856C51.61,29.568,51.997,27.204,49.001,25.834z M45.034,32.323   c-1.88,3.024-5.451,8.1-10.967,7.388c-3.345-0.429-5.609-2.715-7.329-4.817c-0.927-1.132-1.76-2.281-2.401-3.534   c-0.231-0.448-1.609-4.765-1.757-4.784c0.005,0,10.238,1.234,17.416-4.093c0.396-0.295,0.783-0.609,1.158-0.944   c0,0,0.078,0.382,0.335,0.944c0.594,1.3,2.163,3.56,5.999,4.218C47.85,26.763,45.232,32.002,45.034,32.323z"/></g>
</svg>