<?xml version="1.0" encoding="UTF-8" standalone="no" ?>
<!DOCTYPE svg PUBLIC "-//W3C//DTD SVG 1.1//EN" "http://www.w3.org/Graphics/SVG/1.1/DTD/svg11.dtd">
<svg xmlns="http://www.w3.org/2000/svg" xmlns:xlink="http://www.w3.org/1999/xlink" version="1.1" width="1080" height="1080" viewBox="0 0 1080 1080" xml:space="preserve">
<desc>Created with Fabric.js 5.2.4</desc>
<defs>
</defs>
<rect x="0" y="0" width="100%" height="100%" fill="transparent"></rect>
<g transform="matrix(1 0 0 1 540 540)" id="c50b349a-3c7e-4b1b-ba43-cec74a73c945"  >
</g>
<g transform="matrix(1 0 0 1 540 540)" id="f8b83068-76bb-4577-9432-a2a3f07e5187"  >
<rect style="stroke: none; stroke-width: 1; stroke-dasharray: none; stroke-linecap: butt; stroke-dashoffset: 0; stroke-linejoin: miter; stroke-miterlimit: 4; fill: rgb(255,255,255); fill-rule: nonzero; opacity: 1; visibility: hidden;" vector-effect="non-scaling-stroke"  x="-540" y="-540" rx="0" ry="0" width="1080" height="1080" />
</g>
<g transform="matrix(12.22 0 0 12.22 799.67 540.35)"  >
<path style="stroke: none; stroke-width: 1; stroke-dasharray: none; stroke-linecap: butt; stroke-dashoffset: 0; stroke-linejoin: miter; stroke-miterlimit: 4; fill: rgb(255,255,255); fill-rule: nonzero; opacity: 1;" vector-effect="non-scaling-stroke"  transform=" translate(-71.11, -50.04)" d="M 90.8 56.2 L 83.39999999999999 52.900000000000006 L 83.69999999999999 51.900000000000006 C 83.89999999999999 51.300000000000004 83.79999999999998 50.60000000000001 83.39999999999999 50.10000000000001 L 80.69999999999999 46.60000000000001 C 80.49999999999999 46.30000000000001 80.1 46.00000000000001 79.69999999999999 45.900000000000006 C 81.19999999999999 44.50000000000001 82.39999999999999 42.800000000000004 83.29999999999998 40.800000000000004 C 83.29999999999998 40.800000000000004 83.29999999999998 40.800000000000004 83.29999999999998 40.800000000000004 C 84.29999999999998 40.800000000000004 85.39999999999998 40.400000000000006 86.19999999999999 39.7 C 87.19999999999999 38.900000000000006 87.79999999999998 37.7 87.99999999999999 36.400000000000006 C 88.39999999999999 34.300000000000004 87.49999999999999 32.300000000000004 85.99999999999999 31.200000000000006 L 85.69999999999999 23.60000000000001 C 85.69999999999999 23.60000000000001 85.39999999999999 16.20000000000001 77.39999999999999 16.20000000000001 C 77.39999999999999 16.20000000000001 76.8 12.70000000000001 71.1 13.00000000000001 C 65.6 13.300000000000011 56.699999999999996 13.800000000000011 56.199999999999996 31.30000000000001 C 54.699999999999996 32.40000000000001 53.9 34.40000000000001 54.199999999999996 36.40000000000001 C 54.599999999999994 39.000000000000014 56.699999999999996 40.80000000000001 58.99999999999999 40.80000000000001 C 58.99999999999999 40.80000000000001 58.99999999999999 40.80000000000001 58.99999999999999 40.80000000000001 C 59.89999999999999 42.80000000000001 61.099999999999994 44.500000000000014 62.599999999999994 45.90000000000001 C 62.199999999999996 46.000000000000014 61.89999999999999 46.20000000000001 61.599999999999994 46.600000000000016 L 58.89999999999999 50.100000000000016 C 58.49999999999999 50.600000000000016 58.39999999999999 51.30000000000002 58.599999999999994 51.90000000000001 L 58.89999999999999 52.90000000000001 L 51.49999999999999 56.20000000000001 C 50.79999999999999 56.50000000000001 50.39999999999999 57.20000000000001 50.39999999999999 57.90000000000001 L 50.39999999999999 77 C 50.39999999999999 78 51.19999999999999 78.9 52.29999999999999 78.9 L 64.99999999999999 78.9 C 64.89999999999999 79.60000000000001 64.79999999999998 80.30000000000001 64.69999999999999 81 C 64.6 81.6 64.79999999999998 82.3 65.29999999999998 82.7 L 69.69999999999999 86.60000000000001 C 70.1 86.9 70.49999999999999 87.10000000000001 70.89999999999999 87.10000000000001 C 70.99999999999999 87.10000000000001 70.99999999999999 87.10000000000001 71.1 87.10000000000001 C 71.19999999999999 87.10000000000001 71.19999999999999 87.10000000000001 71.3 87.10000000000001 C 71.7 87.10000000000001 72.2 86.9 72.5 86.60000000000001 L 76.9 82.7 C 77.4 82.3 77.60000000000001 81.60000000000001 77.5 81 C 77.4 80.3 77.3 79.6 77.2 78.9 L 89.9 78.9 C 90.9 78.9 91.80000000000001 78.10000000000001 91.80000000000001 77 L 91.80000000000001 57.9 C 91.9 57.1 91.5 56.5 90.8 56.2 z M 77.5 58.5 L 77 57.2 C 76.8 56.6 76.2 56.1 75.5 56 L 75 56 L 79.2 50.7 L 79.9 51.6 L 77.5 58.5 z M 74.8 50.3 L 71.3 54.699999999999996 L 67.8 50.3 L 67.8 49 C 68.89999999999999 49.4 70.1 49.6 71.3 49.6 C 72.5 49.6 73.7 49.4 74.8 49 L 74.8 50.3 z M 71.3 60.8 L 70.39999999999999 59.4 L 71.3 59.3 L 72.2 59.4 L 71.3 60.8 z M 61.2 32.5 C 61.2 32.2 61.2 31.9 61.2 31.6 C 64.2 31.200000000000003 67 30 69.4 28.5 C 69.10000000000001 29.7 68.80000000000001 31 68.80000000000001 31 C 73.20000000000002 31.1 73.9 26.4 74.00000000000001 25.1 C 76.00000000000001 23.3 77.20000000000002 21.900000000000002 77.20000000000002 21.900000000000002 C 77.20000000000002 21.900000000000002 78.30000000000001 23.700000000000003 79.80000000000001 25.3 C 80.9 27.400000000000002 81.50000000000001 29.9 81.50000000000001 32.6 C 81.50000000000001 39.9 76.90000000000002 45.900000000000006 71.40000000000002 45.900000000000006 C 65.7 45.8 61.2 39.9 61.2 32.5 z M 63.3 50.7 L 67.5 56 L 67 56.1 C 66.3 56.2 65.7 56.6 65.5 57.300000000000004 L 65 58.6 L 62.5 51.7 L 63.3 50.7 z M 54.4 75.2 L 54.4 59.1 L 60.4 56.4 L 63.3 64.5 C 63.599999999999994 65.2 64.3 65.7 65 65.7 C 65 65.7 65 65.7 65 65.7 C 65.8 65.7 66.5 65.2 66.7 64.5 L 67.60000000000001 62 L 67.7 62.1 C 67.60000000000001 63.2 66.60000000000001 69.2 65.7 75.1 L 54.4 75.1 z M 71.3 82.9 L 68.7 80.60000000000001 C 70.2 71.4 70.9 66.80000000000001 71.2 64.60000000000001 L 71.4 64.60000000000001 C 71.7 66.9 72.4 71.50000000000001 73.9 80.60000000000001 L 71.3 82.9 z M 88.2 75.2 L 76.8 75.2 C 75.89999999999999 69.3 74.89999999999999 63.300000000000004 74.8 62.2 L 74.89999999999999 62.1 L 75.8 64.6 C 76.1 65.3 76.8 65.8 77.5 65.8 C 77.5 65.8 77.5 65.8 77.5 65.8 C 78.3 65.8 79 65.3 79.2 64.6 L 82.10000000000001 56.49999999999999 L 88.10000000000001 59.199999999999996 L 88.10000000000001 75.2 z" stroke-linecap="round" />
</g>
<g transform="matrix(11.26 0 0 11.26 858.77 335.04)"  >
<path style="stroke: none; stroke-width: 1; stroke-dasharray: none; stroke-linecap: butt; stroke-dashoffset: 0; stroke-linejoin: miter; stroke-miterlimit: 4; fill: rgb(255,255,255); fill-rule: nonzero; opacity: 1;" vector-effect="non-scaling-stroke"  transform=" translate(-77, -33.5)" d="M 77 35.6 C 77.9 35.6 78.6 34.7 78.6 33.5 C 78.6 32.3 77.89999999999999 31.4 77 31.4 C 76.1 31.4 75.4 32.3 75.4 33.5 C 75.4 34.7 76.1 35.6 77 35.6 z" stroke-linecap="round" />
</g>
<g transform="matrix(11.26 0 0 11.26 730.38 335.04)"  >
<path style="stroke: none; stroke-width: 1; stroke-dasharray: none; stroke-linecap: butt; stroke-dashoffset: 0; stroke-linejoin: miter; stroke-miterlimit: 4; fill: rgb(255,255,255); fill-rule: nonzero; opacity: 1;" vector-effect="non-scaling-stroke"  transform=" translate(-65.6, -33.5)" d="M 67.2 33.5 C 67.2 32.3 66.5 31.4 65.60000000000001 31.4 C 64.7 31.4 64.00000000000001 32.3 64.00000000000001 33.5 C 64.00000000000001 34.7 64.70000000000002 35.6 65.60000000000001 35.6 C 66.5 35.6 67.2 34.7 67.2 33.5 z" stroke-linecap="round" />
</g>
<g transform="matrix(11.26 0 0 11.26 794.55 434.16)"  >
<path style="stroke: none; stroke-width: 1; stroke-dasharray: none; stroke-linecap: butt; stroke-dashoffset: 0; stroke-linejoin: miter; stroke-miterlimit: 4; fill: rgb(255,255,255); fill-rule: nonzero; opacity: 1;" vector-effect="non-scaling-stroke"  transform=" translate(-71.3, -42.3)" d="M 71.3 44.6 C 73.8 44.6 75.89999999999999 42.5 75.89999999999999 40 L 66.69999999999999 40 C 66.7 42.5 68.8 44.6 71.3 44.6 z" stroke-linecap="round" />
</g>
<g transform="matrix(12.22 0 0 12.22 112.88 115.94)"  >
<circle style="stroke: none; stroke-width: 1; stroke-dasharray: none; stroke-linecap: butt; stroke-dashoffset: 0; stroke-linejoin: miter; stroke-miterlimit: 4; fill: rgb(255,255,255); fill-rule: nonzero; opacity: 1;" vector-effect="non-scaling-stroke"  cx="0" cy="0" r="7" />
</g>
<g transform="matrix(12.22 0 0 12.22 112.88 543.66)"  >
<circle style="stroke: none; stroke-width: 1; stroke-dasharray: none; stroke-linecap: butt; stroke-dashoffset: 0; stroke-linejoin: miter; stroke-miterlimit: 4; fill: rgb(255,255,255); fill-rule: nonzero; opacity: 1;" vector-effect="non-scaling-stroke"  cx="0" cy="0" r="7" />
</g>
<g transform="matrix(12.22 0 0 12.22 112.88 964.06)"  >
<circle style="stroke: none; stroke-width: 1; stroke-dasharray: none; stroke-linecap: butt; stroke-dashoffset: 0; stroke-linejoin: miter; stroke-miterlimit: 4; fill: rgb(255,255,255); fill-rule: nonzero; opacity: 1;" vector-effect="non-scaling-stroke"  cx="0" cy="0" r="7" />
</g>
<g transform="matrix(12.22 0 0 12.22 400.65 539.85)"  >
<polygon style="stroke: none; stroke-width: 1; stroke-dasharray: none; stroke-linecap: butt; stroke-dashoffset: 0; stroke-linejoin: miter; stroke-miterlimit: 4; fill: rgb(255,255,255); fill-rule: nonzero; opacity: 1;" vector-effect="non-scaling-stroke"  points="14.35,-1.7 3.65,-1.7 3.65,-37 -14.35,-37 -14.35,-32.4 -0.95,-32.4 -0.95,-2 -14.35,-2 -14.35,2.6 -0.95,2.6 -0.95,32.4 -14.35,32.4 -14.35,37 3.65,37 3.65,2.3 14.35,2.3 " />
</g>
</svg>