<svg xmlns="http://www.w3.org/2000/svg" xmlns:xlink="http://www.w3.org/1999/xlink" xmlns:xodm="http://www.corel.com/coreldraw/odm/2003" xml:space="preserve" version="1.1" style="shape-rendering:geometricPrecision;text-rendering:geometricPrecision;image-rendering:optimizeQuality;" viewBox="0 0 846.66 1058.325" x="0px" y="0px" fill-rule="evenodd" clip-rule="evenodd"><defs><style type="text/css">
   
    .fil0 {fill:white;fill-rule:nonzero}
   
  </style></defs><g><path class="fil0" d="M431.2 479.14l85.16 0 0 -73.74 57.28 0c0.9,-5.2 1.64,-10.41 2.2,-15.64 0.45,-4.26 0.82,-8.61 1.04,-13.03l-34.93 0 0 -27.42 34.91 0c-3.44,-63.32 -30.52,-120.36 -72.57,-162.41 -42.03,-42.06 -99.08,-69.13 -162.42,-72.57l0 34.91 -27.42 0 0 -34.91c-63.32,3.44 -120.36,30.52 -162.41,72.57 -42.05,42.05 -69.13,99.09 -72.57,162.41l34.91 0 0 27.42 -34.91 0c3.44,63.34 30.51,120.39 72.55,162.44 42.07,42.03 99.11,69.11 162.43,72.55l0 -34.91 27.42 0 0 34.93c4.43,-0.24 8.79,-0.58 13.07,-1.04 5.19,-0.56 10.38,-1.28 15.56,-2.17l0 -68.69c0,-16.7 6.83,-31.89 17.82,-42.88 10.99,-10.99 26.18,-17.82 42.88,-17.82zm149.15 142.95l79.34 0 0 45.24 50.12 0 118.25 -132.25c-1.06,-7.24 -4.48,-13.77 -9.45,-18.74 -6.03,-6.03 -14.36,-9.79 -23.49,-9.79l-85.16 0 -13.71 0 -179.89 0 -85.16 0c-9.13,0 -17.46,3.76 -23.5,9.79 -4.96,4.97 -8.38,11.49 -9.44,18.73l118.26 132.26 50.12 0 0 -45.24 13.71 0zm79.34 72.65l0 45.21 -93.05 0 0 -45.21 -62.24 0 -106.49 -119.09 0 184.62c0,9.14 3.76,17.47 9.79,23.5 6.04,6.03 14.37,9.79 23.5,9.79l363.92 0c9.13,0 17.46,-3.76 23.49,-9.79 6.03,-6.03 9.79,-14.36 9.79,-23.5l0 -184.61 -106.48 119.08 -62.23 0zm-27.42 -45.23l-38.22 0 0 63.03 38.22 0 0 -63.03zm-381.66 -300.2l63.84 0 0 -132.56 27.42 0 0 159.98 -91.26 0 0 -27.42zm350.77 56.09l33.84 0c0.69,-5.04 1.26,-10.12 1.69,-15.23 0.77,-8.95 1.17,-18 1.17,-27.15 0,-85.58 -34.7,-163.07 -90.77,-219.14 -56.07,-56.07 -133.57,-90.77 -219.15,-90.77 -85.58,0 -163.07,34.7 -219.14,90.77 -56.07,56.07 -90.77,133.56 -90.77,219.14 0,85.58 34.7,163.08 90.77,219.15 56.07,56.07 133.56,90.77 219.14,90.77 9.11,0 18.13,-0.4 26.97,-1.17 5.17,-0.44 10.3,-1 15.37,-1.7l0 -33.82c-4.18,0.64 -8.4,1.19 -12.67,1.64 -9.92,1.07 -19.83,1.62 -29.67,1.62 -76.34,0 -145.48,-30.95 -195.5,-80.98 -50.03,-50.09 -80.98,-119.21 -80.98,-195.51 0,-76.34 30.95,-145.48 80.98,-195.5 50.02,-50.03 119.16,-80.98 195.5,-80.98 76.3,0 145.42,30.95 195.46,80.98 50.08,50.02 81.03,119.16 81.03,195.5 0,9.82 -0.56,19.73 -1.62,29.64 -0.45,4.29 -1,8.54 -1.65,12.74zm-57.61 73.74l138.78 0 0 -46.32 -138.78 0 0 46.32z"/></g>
  </svg>